<svg width="26" height="27" viewBox="0 0 26 27" fill="none" xmlns="http://www.w3.org/2000/svg">
<path d="M13.2652 10.8535V15.9908H20.4044C20.0909 17.643 19.1502 19.0419 17.7392 19.9826L22.0445 23.323C24.5528 21.0077 26 17.6069 26 13.567C26 12.6264 25.9156 11.7219 25.7588 10.8537L13.2652 10.8535Z" fill="#4285F4"/>
<path d="M5.83049 15.7903L4.8595 16.5336L1.42249 19.2108C3.60525 23.5401 8.07899 26.5309 13.2645 26.5309C16.8461 26.5309 19.8489 25.349 22.0438 23.3231L17.7386 19.9826C16.5567 20.7785 15.0493 21.2609 13.2645 21.2609C9.81554 21.2609 6.88517 18.9335 5.83591 15.798L5.83049 15.7903Z" fill="#34A853"/>
<path d="M1.42292 7.31982C0.518504 9.10455 0 11.1185 0 13.265C0 15.4116 0.518504 17.4256 1.42292 19.2103C1.42292 19.2223 5.83677 15.7854 5.83677 15.7854C5.57146 14.9895 5.41465 14.1454 5.41465 13.2649C5.41465 12.3845 5.57146 11.5403 5.83677 10.7444L1.42292 7.31982Z" fill="#FBBC05"/>
<path d="M13.2648 5.28203C15.2185 5.28203 16.955 5.95734 18.3419 7.25978L22.1406 3.4611C19.8372 1.31456 16.8465 0 13.2648 0C8.07927 0 3.60525 2.97868 1.42249 7.32009L5.8362 10.745C6.88532 7.60948 9.81581 5.28203 13.2648 5.28203Z" fill="#EA4335"/>
</svg>
